<svg width="38" height="21" viewBox="0 0 38 21" fill="none" xmlns="http://www.w3.org/2000/svg">
<path d="M3.64455 16.0965C4.49637 16.8217 5.29605 17.4697 6.06593 18.1683C6.49382 18.5591 6.87978 19.0176 7.27238 19.4757C7.53411 19.781 7.76719 20.1532 7.46964 20.5708C7.15387 21.014 6.79934 20.8123 6.47291 20.5358C5.85496 20.0045 5.25578 19.4558 4.63783 18.9246C3.72948 18.1548 2.79911 17.4513 1.7524 16.9907C0.884559 16.6066 0.697348 15.5593 1.45175 14.9962C2.96055 13.8699 4.24519 12.4033 5.70297 11.2158C5.90467 11.0478 6.16975 10.7377 6.40606 11.0611C6.59135 11.3232 6.34449 11.6078 6.20539 11.8118C5.62583 12.6784 5.02466 13.5222 4.43733 14.373C4.34074 14.5175 4.16219 14.6353 4.22399 14.8495C4.30361 15.1272 4.52597 15.063 4.70638 15.0664C8.27098 15.1796 11.843 15.3976 15.3933 14.9289C17.6744 14.6306 19.8964 14.0612 21.8833 12.6179C22.5686 12.1163 23.1658 11.4995 23.6027 10.6916C23.7444 10.4307 23.963 10.1239 23.8413 9.81672C23.6963 9.46266 23.3623 9.64808 23.1089 9.64974C20.6203 9.65504 18.2215 9.13592 16.0218 7.55851C15.1502 6.93182 14.3891 6.16783 13.9416 5.02555C13.388 3.60743 13.6918 2.33129 14.7917 1.55763C15.8916 0.783967 17.1001 0.698832 18.3434 0.918868C20.6346 1.33223 22.6652 2.40346 24.2163 4.6256C24.6912 5.30452 25.1114 6.06014 25.2585 6.91597C25.4413 7.99593 25.9118 8.04375 26.6519 7.8459C29.2123 7.15555 31.5582 5.88127 33.8044 4.33068C34.6507 3.74488 35.4902 3.15955 36.352 2.60505C36.5753 2.4598 36.8979 2.11328 37.1167 2.56738C37.3111 2.95845 36.9601 3.18555 36.7702 3.4256C36.7519 3.45117 36.7332 3.46866 36.7077 3.48664C33.3344 5.80471 30.1812 8.69014 26.1659 9.37774C25.7637 9.44655 25.4861 9.57943 25.3703 10.1138C24.9597 12.0531 23.9278 13.413 22.5499 14.4086C19.9152 16.3184 16.9655 16.8824 13.9347 16.9583C10.604 17.0391 7.28417 16.7063 3.98148 16.0485C3.90731 16.0375 3.82933 16.0673 3.65783 16.0955L3.64455 16.0965ZM16.8797 2.21196C16.5035 2.27084 16.151 2.28756 15.8235 2.37539C14.5718 2.69832 14.2456 3.84653 15.0541 5.0929C15.458 5.71206 15.9785 6.18538 16.5397 6.57489C18.2656 7.77282 20.1363 8.18344 22.0716 8.28187C22.7413 8.31565 23.7182 8.73254 23.9815 8.01781C24.2723 7.22019 23.6254 6.27815 23.1454 5.52673C23.0328 5.34848 22.9068 5.17118 22.7693 5.01896C21.0832 3.15442 19.0989 2.26612 16.8869 2.21955L16.8797 2.21196Z" fill="#EC4899"/>
</svg>
