<svg width="61" height="59" viewBox="0 0 61 59" fill="none" xmlns="http://www.w3.org/2000/svg">
<path d="M53.3771 46.8586C59.3462 34.3496 56.5466 20.3927 46.8482 11.1114L46.8595 11.0992C42.9027 7.3922 39.2812 4.94212 35.153 3.31325C24.3129 -0.943274 13.4508 0.990498 2.61484 3.26441C1.77502 3.44049 1.04302 3.94156 0.472117 4.63599C0.15903 5.02553 0.0245997 5.46648 0.255812 5.92755C0.487022 6.38862 0.929075 6.54677 1.43171 6.46706C1.74546 6.4208 2.06385 6.34501 2.38393 6.26881C2.51721 6.23709 2.65078 6.20529 2.78443 6.17552C9.55532 4.61172 16.423 3.94997 23.3494 4.40361C36.9653 5.27366 48.5827 15.4166 51.0293 28.2585C52.1649 34.2713 51.1825 40.0073 49.3156 45.6976C48.8469 47.1408 48.4026 48.6067 48.3146 50.1518C48.3139 50.1664 48.3132 50.1811 48.3125 50.1958C48.2873 50.7036 48.2592 51.2694 48.7978 51.5672C49.2134 51.7936 49.5491 51.5766 49.8987 51.3506C49.9542 51.3147 50.0102 51.2786 50.0668 51.2439C51.7291 50.1982 52.5771 48.5392 53.3771 46.8586Z" fill="#EC4899"/>
<path d="M44.3542 57.7103C44.3566 57.7126 44.3591 57.7149 44.3615 57.7173L44.3493 57.706C44.3509 57.7074 44.3526 57.7088 44.3542 57.7103Z" fill="#EC4899"/>
<path d="M43.2994 55.408C43.4753 56.2448 43.6979 57.0796 44.3542 57.7103C45.1958 58.4362 46.1865 58.535 47.1565 58.1424C47.9274 57.825 48.7022 57.5162 49.4767 57.2074C53.0134 55.7976 56.546 54.3894 59.6961 52.1736C59.7725 52.118 59.8542 52.0633 59.9369 52.008C60.3738 51.7159 60.8379 51.4057 60.6755 50.8386C60.4634 50.1027 59.8302 50.2019 59.2558 50.2919C59.1585 50.3072 59.063 50.3221 58.9715 50.3328C55.4696 50.7253 52.1007 51.7595 48.7979 52.9675L48.7769 52.9752C46.2022 53.9225 46.1898 53.9271 45.7659 51.1048C45.6879 50.6491 45.6334 50.1925 45.5902 49.7236C45.5209 48.9334 45.453 48.1416 45.3851 47.349C45.1871 45.0372 44.9885 42.7191 44.7513 40.4156C44.6638 39.4543 44.3168 38.4803 43.1084 38.5658C41.9235 38.6503 41.6679 39.5669 41.7226 40.5884C41.7301 40.7262 41.7375 40.864 41.7449 41.0017C42.0047 45.8302 42.2644 50.6575 43.2994 55.408Z" fill="#EC4899"/>
</svg>
