<svg width="55" height="19" viewBox="0 0 55 19" fill="none" xmlns="http://www.w3.org/2000/svg">
<path d="M51.3557 6.97182C50.4584 5.82489 49.6039 4.78437 48.8087 3.70028C48.3677 3.09497 48.0086 2.4323 47.6403 1.76743C47.3948 1.32418 47.2128 0.819159 47.7716 0.4813C48.3646 0.122755 48.7747 0.489879 49.119 0.927866C49.7681 1.76553 50.3852 2.61477 51.0343 3.45243C51.9924 4.67158 53.0049 5.82674 54.2649 6.76212C55.3088 7.54014 55.1814 8.76948 53.9459 9.08049C51.475 9.7025 49.1855 10.7909 46.7618 11.5012C46.4251 11.6035 45.9499 11.8363 45.7456 11.3837C45.5887 11.0193 46.0296 10.8072 46.2941 10.6395C47.4019 9.92296 48.5308 9.24034 49.6435 8.54423C49.8282 8.42481 50.1149 8.36823 50.1089 8.10715C50.1018 7.76888 49.7748 7.74856 49.5299 7.67088C44.7066 6.08713 39.9115 4.38509 34.8949 3.44761C31.6727 2.84216 28.4321 2.55929 25.1927 3.3345C24.074 3.60606 23.0335 4.04053 22.1418 4.75093C21.853 4.9801 21.4424 5.22832 21.4962 5.6162C21.5647 6.06528 22.0882 5.99789 22.4347 6.09981C25.8329 7.11268 28.9168 8.66598 31.342 11.3026C32.3023 12.3492 33.0617 13.5017 33.2546 14.9421C33.4916 16.7296 32.6104 18.0099 30.8264 18.4111C29.0424 18.8124 27.3621 18.4115 25.7458 17.6603C22.77 16.2675 20.3905 14.2572 19.0862 11.1764C18.6864 10.2347 18.3892 9.231 18.5015 8.22884C18.6468 6.96531 18.0223 6.7201 16.9399 6.6349C13.1931 6.34663 9.52574 6.78892 5.89316 7.57609C4.52408 7.87445 3.16424 8.17502 1.78538 8.43258C1.4275 8.50104 0.860555 8.75038 0.727968 8.16099C0.605709 7.65099 1.16779 7.54472 1.51479 7.35826C1.549 7.33758 1.58104 7.32601 1.62231 7.31663C7.07363 6.14607 12.432 4.26094 18.1633 5.1478C18.7373 5.2367 19.1647 5.20407 19.5182 4.66335C20.7877 2.69681 22.6932 1.62253 24.9377 1.09072C29.2317 0.0671215 33.4635 0.653851 37.6275 1.811C42.2026 3.08548 46.6116 4.81075 50.8783 6.88675C50.9755 6.92918 51.0928 6.92832 51.3372 6.96741L51.3557 6.97182ZM28.2162 16.8362C28.7511 16.9254 29.2383 17.0513 29.7173 17.0887C31.5437 17.2456 32.4087 16.1154 31.7611 14.4126C31.4362 13.5658 30.899 12.8317 30.2755 12.1733C28.3581 10.1482 25.9554 8.93055 23.3501 8.02996C22.4485 7.71866 21.2678 6.8599 20.6471 7.5388C19.9586 8.29767 20.4969 9.59936 20.8772 10.6229C20.9658 10.8652 21.0728 11.1119 21.2048 11.3357C22.8241 14.0782 25.2073 15.8682 28.2091 16.8249L28.2162 16.8362Z" fill="#EC4899"/>
</svg>
