<svg width="70" height="70" viewBox="0 0 70 70" fill="none" xmlns="http://www.w3.org/2000/svg">
<circle cx="35" cy="35" r="35" fill="url(#paint0_linear_10504_201)"/>
<path d="M35.5 48C42.7917 48 48 45.4288 48 39.7048C48 33.4844 44.875 29.3368 38.625 26.2255L41.0833 23.0728C41.2085 22.866 41.2765 22.6298 41.2804 22.3882C41.2842 22.1467 41.2238 21.9085 41.1052 21.6978C40.9866 21.4872 40.8142 21.3116 40.6054 21.189C40.3966 21.0665 40.159 21.0012 39.9167 21H31.0833C30.8415 21.0025 30.6047 21.0685 30.3967 21.1914C30.1887 21.3143 30.0168 21.4897 29.8985 21.6999C29.7802 21.9101 29.7196 22.1477 29.7227 22.3888C29.7259 22.6298 29.7928 22.8657 29.9167 23.0728L32.375 26.2463C26.125 29.3783 23 33.5259 23 39.7463C23 45.4288 28.2083 48 35.5 48Z" fill="#F6F7F9"/>
<path d="M35.5 48C42.7917 48 48 45.4288 48 39.7048C48 33.4844 44.875 29.3368 38.625 26.2255L41.0833 23.0728C41.2085 22.866 41.2765 22.6298 41.2804 22.3882C41.2842 22.1467 41.2238 21.9085 41.1052 21.6978C40.9866 21.4872 40.8142 21.3116 40.6054 21.189C40.3966 21.0665 40.159 21.0012 39.9167 21H31.0833C30.8415 21.0025 30.6047 21.0685 30.3967 21.1914C30.1887 21.3143 30.0168 21.4897 29.8985 21.6999C29.7802 21.9101 29.7196 22.1477 29.7227 22.3888C29.7259 22.6298 29.7928 22.8657 29.9167 23.0728L32.375 26.2463C26.125 29.3783 23 33.5259 23 39.7463C23 45.4288 28.2083 48 35.5 48Z" fill="#F6F7F9"/>
<path d="M38.3812 34.0971C38.226 33.6578 37.9377 33.2775 37.5564 33.0085C37.175 32.7395 36.7192 32.5952 36.2521 32.5955H34.5062C34.0088 32.5945 33.5286 32.777 33.1581 33.1079C32.7875 33.4388 32.5529 33.8946 32.4994 34.3877C32.4458 34.8807 32.5772 35.3761 32.8681 35.7783C33.159 36.1806 33.5889 36.4614 34.075 36.5665L36.7354 37.1481C37.2775 37.2686 37.7561 37.5841 38.0796 38.0342C38.4031 38.4843 38.5488 39.0374 38.489 39.5879C38.4292 40.1384 38.168 40.6476 37.7554 41.0182C37.3427 41.3888 36.8075 41.5948 36.2521 41.5968H34.75C33.7667 41.5968 32.9312 40.9696 32.6208 40.0952" fill="#F6F7F9"/>
<path d="M35.5 32.5955V30.3462V32.5955Z" fill="#F6F7F9"/>
<path d="M35.5 43.8462V41.5968V43.8462Z" fill="#F6F7F9"/>
<path d="M38.625 26.2255L37.8364 25.6106L37.084 26.5755L38.1794 27.1208L38.625 26.2255ZM41.0833 23.0728L41.8719 23.6877L41.9082 23.6411L41.9388 23.5907L41.0833 23.0728ZM39.9167 21L39.9217 20H39.9167V21ZM31.0833 21V19.9999L31.073 20.0001L31.0833 21ZM29.9167 23.0728L29.0585 23.5861L29.0893 23.6377L29.1261 23.6852L29.9167 23.0728ZM32.375 26.2463L32.823 27.1403L33.9104 26.5954L33.1656 25.6339L32.375 26.2463ZM37.4384 34.4304C37.6225 34.9511 38.1939 35.224 38.7146 35.0399C39.2353 34.8558 39.5082 34.2845 39.3241 33.7638L37.4384 34.4304ZM36.2521 32.5955V33.5955H36.2526L36.2521 32.5955ZM34.5062 32.5955L34.5043 33.5955H34.5062V32.5955ZM34.075 36.5665L34.2885 35.5896L34.2865 35.5892L34.075 36.5665ZM36.7354 37.1481L36.9525 36.1719L36.949 36.1711L36.7354 37.1481ZM36.2521 41.5968V42.5969L36.2557 42.5968L36.2521 41.5968ZM33.5632 39.7607C33.3784 39.2402 32.8067 38.9681 32.2863 39.1529C31.7658 39.3376 31.4937 39.9093 31.6785 40.4298L33.5632 39.7607ZM34.5 32.5955C34.5 33.1477 34.9477 33.5955 35.5 33.5955C36.0523 33.5955 36.5 33.1477 36.5 32.5955H34.5ZM36.5 30.3462C36.5 29.7939 36.0523 29.3462 35.5 29.3462C34.9477 29.3462 34.5 29.7939 34.5 30.3462H36.5ZM34.5 43.8462C34.5 44.3984 34.9477 44.8462 35.5 44.8462C36.0523 44.8462 36.5 44.3984 36.5 43.8462H34.5ZM36.5 41.5968C36.5 41.0446 36.0523 40.5968 35.5 40.5968C34.9477 40.5968 34.5 41.0446 34.5 41.5968H36.5ZM35.5 49C39.2382 49 42.573 48.345 45.0074 46.8512C47.5013 45.3209 49 42.9329 49 39.7048H47C47 42.2006 45.8946 43.9603 43.9614 45.1466C41.9687 46.3693 39.0535 47 35.5 47V49ZM49 39.7048C49 36.4148 48.1693 33.6143 46.472 31.2208C44.7845 28.8412 42.2894 26.9326 39.0706 25.3303L38.1794 27.1208C41.2106 28.6297 43.403 30.3505 44.8405 32.3777C46.2682 34.3908 47 36.7743 47 39.7048H49ZM39.4136 26.8404L41.8719 23.6877L40.2947 22.4579L37.8364 25.6106L39.4136 26.8404ZM41.9388 23.5907C42.1557 23.2324 42.2736 22.823 42.2802 22.4041L40.2805 22.3724C40.2795 22.4365 40.2614 22.4995 40.2279 22.5549L41.9388 23.5907ZM42.2802 22.4041C42.2869 21.9853 42.1821 21.5723 41.9766 21.2074L40.2337 22.1883C40.2655 22.2447 40.2815 22.3082 40.2805 22.3724L42.2802 22.4041ZM41.9766 21.2074C41.7712 20.8424 41.4727 20.5386 41.1117 20.3267L40.0991 22.0514C40.1556 22.0846 40.202 22.132 40.2337 22.1883L41.9766 21.2074ZM41.1117 20.3267C40.7508 20.1148 40.3402 20.0021 39.9217 20L39.9116 22C39.9777 22.0003 40.0424 22.0181 40.0991 22.0514L41.1117 20.3267ZM39.9167 20H31.0833V22H39.9167V20ZM31.073 20.0001C30.6559 20.0044 30.2472 20.1182 29.8881 20.3304L30.9053 22.0524C30.9622 22.0188 31.0272 22.0006 31.0937 21.9999L31.073 20.0001ZM29.8881 20.3304C29.5289 20.5426 29.2318 20.8457 29.0271 21.2094L30.7699 22.1904C30.8019 22.1337 30.8485 22.086 30.9053 22.0524L29.8881 20.3304ZM29.0271 21.2094C28.8223 21.5732 28.7173 21.9845 28.7228 22.402L30.7227 22.3755C30.7218 22.3109 30.738 22.2471 30.7699 22.1904L29.0271 21.2094ZM28.7228 22.402C28.7284 22.8195 28.8442 23.2279 29.0585 23.5861L30.7749 22.5594C30.7414 22.5036 30.7235 22.4401 30.7227 22.3755L28.7228 22.402ZM29.1261 23.6852L31.5844 26.8587L33.1656 25.6339L30.7072 22.4604L29.1261 23.6852ZM31.927 25.3523C28.7091 26.9648 26.2147 28.8785 24.5277 31.2602C22.8307 33.656 22 36.4562 22 39.7463H24C24 36.816 24.7318 34.4322 26.1598 32.4162C27.5978 30.3859 29.7909 28.6598 32.823 27.1403L31.927 25.3523ZM22 39.7463C22 42.9566 23.5015 45.3336 25.9941 46.8573C28.4277 48.345 31.7617 49 35.5 49V47C31.9467 47 29.0306 46.3694 27.0372 45.1509C25.1027 43.9683 24 42.2185 24 39.7463H22ZM39.3241 33.7638C39.0996 33.1288 38.6831 32.5795 38.1327 32.1913L36.98 33.8257C37.1924 33.9755 37.3523 34.1869 37.4384 34.4304L39.3241 33.7638ZM38.1327 32.1913C37.5823 31.8031 36.925 31.5951 36.2515 31.5955L36.2526 33.5955C36.5135 33.5953 36.7676 33.6759 36.98 33.8257L38.1327 32.1913ZM36.2521 31.5955H34.5062V33.5955H36.2521V31.5955ZM34.5082 31.5955C33.7648 31.594 33.0466 31.8668 32.492 32.362L33.8242 33.8538C34.0106 33.6872 34.2528 33.595 34.5043 33.5955L34.5082 31.5955ZM32.492 32.362C31.9373 32.8574 31.5855 33.5403 31.5052 34.2797L33.4935 34.4956C33.5203 34.249 33.6378 34.0202 33.8242 33.8538L32.492 32.362ZM31.5052 34.2797C31.4249 35.0191 31.6219 35.7617 32.0577 36.3643L33.6784 35.1924C33.5324 34.9904 33.4668 34.7423 33.4935 34.4956L31.5052 34.2797ZM32.0577 36.3643C32.4935 36.9669 33.1369 37.3867 33.8635 37.5439L34.2865 35.5892C34.0409 35.536 33.8245 35.3944 33.6784 35.1924L32.0577 36.3643ZM33.8615 37.5435L36.5219 38.125L36.949 36.1711L34.2885 35.5896L33.8615 37.5435ZM36.5184 38.1242C36.8212 38.1916 37.0877 38.3676 37.2675 38.6178L38.8916 37.4505C38.4244 36.8005 37.7339 36.3457 36.9525 36.1719L36.5184 38.1242ZM37.2675 38.6178C37.4473 38.8679 37.528 39.1748 37.4949 39.4799L39.4832 39.6959C39.5697 38.9 39.3588 38.1006 38.8916 37.4505L37.2675 38.6178ZM37.4949 39.4799C37.4617 39.785 37.3169 40.0679 37.0872 40.2742L38.4235 41.7622C39.0191 41.2273 39.3967 40.4918 39.4832 39.6959L37.4949 39.4799ZM37.0872 40.2742C36.8574 40.4806 36.5588 40.5957 36.2484 40.5969L36.2557 42.5968C37.0562 42.5939 37.828 42.2971 38.4235 41.7622L37.0872 40.2742ZM36.2521 40.5968H34.75V42.5968H36.2521V40.5968ZM34.75 40.5968C34.2029 40.5968 33.7364 40.2484 33.5632 39.7607L31.6785 40.4298C32.1261 41.6908 33.3305 42.5968 34.75 42.5968V40.5968ZM36.5 32.5955V30.3462H34.5V32.5955H36.5ZM36.5 43.8462V41.5968H34.5V43.8462H36.5Z" fill="#434E61"/>
<defs>
<linearGradient id="paint0_linear_10504_201" x1="0" y1="0" x2="70" y2="70" gradientUnits="userSpaceOnUse">
<stop stop-color="#E5E5E5"/>
<stop offset="1" stop-color="#E5E5E5" stop-opacity="0"/>
</linearGradient>
</defs>
</svg>
