<svg width="70" height="70" viewBox="0 0 70 70" fill="none" xmlns="http://www.w3.org/2000/svg">
<circle cx="35" cy="35" r="35" fill="url(#paint0_linear_10504_208)"/>
<path d="M23 44.5647V35.6941C23 34.5178 23.4789 33.3897 24.3313 32.5579C25.1838 31.7261 26.3399 31.2588 27.5455 31.2588H43.4545C44.6601 31.2588 45.8162 31.7261 46.6687 32.5579C47.5211 33.3897 48 34.5178 48 35.6941V44.5647C48 45.741 47.5211 46.8692 46.6687 47.7009C45.8162 48.5327 44.6601 49 43.4545 49H27.5455C26.3399 49 25.1838 48.5327 24.3313 47.7009C23.4789 46.8692 23 45.741 23 44.5647Z" fill="#F6F7F9"/>
<path d="M38.1523 23.588C38.1523 24.2744 37.8728 24.9326 37.3754 25.418C36.878 25.9033 36.2034 26.176 35.5 26.176C34.7966 26.176 34.122 25.9033 33.6246 25.418C33.1272 24.9326 32.8477 24.2744 32.8477 23.588C32.8477 22.9016 33.1272 22.2433 33.6246 21.758C34.122 21.2727 34.7966 21 35.5 21C36.2034 21 36.878 21.2727 37.3754 21.758C37.8728 22.2433 38.1523 22.9016 38.1523 23.588Z" fill="#F6F7F9"/>
<path d="M38.1523 23.588C38.1523 24.2744 37.8728 24.9326 37.3754 25.418C36.878 25.9033 36.2034 26.176 35.5 26.176C34.7966 26.176 34.122 25.9033 33.6246 25.418C33.1272 24.9326 32.8477 24.2744 32.8477 23.588C32.8477 22.9016 33.1272 22.2433 33.6246 21.758C34.122 21.2727 34.7966 21 35.5 21C36.2034 21 36.878 21.2727 37.3754 21.758C37.8728 22.2433 38.1523 22.9016 38.1523 23.588Z" fill="#F6F7F9"/>
<path d="M35.5 26.1738V31.1635V26.1738Z" fill="#F6F7F9"/>
<path d="M39.4773 43.3162C39.4773 43.3162 38.2273 44.6091 35.5 44.6091C32.7727 44.6091 31.5227 43.3162 31.5227 43.3162" fill="#F6F7F9"/>
<path d="M31.05 38.4196C30.8993 38.4196 30.7548 38.3612 30.6482 38.2572C30.5417 38.1533 30.4818 38.0122 30.4818 37.8652C30.4818 37.7182 30.5417 37.5771 30.6482 37.4732C30.7548 37.3692 30.8993 37.3108 31.05 37.3108" fill="#F6F7F9"/>
<path d="M31.05 38.4196C31.2007 38.4196 31.3452 38.3612 31.4518 38.2572C31.5583 38.1533 31.6182 38.0122 31.6182 37.8652C31.6182 37.7182 31.5583 37.5771 31.4518 37.4732C31.3452 37.3692 31.2007 37.3108 31.05 37.3108" fill="#F6F7F9"/>
<path d="M39.95 38.4196C39.7993 38.4196 39.6548 38.3612 39.5482 38.2572C39.4417 38.1533 39.3818 38.0122 39.3818 37.8652C39.3818 37.7182 39.4417 37.5771 39.5482 37.4732C39.6548 37.3692 39.7993 37.3108 39.95 37.3108" fill="#F6F7F9"/>
<path d="M39.95 38.4196C40.1007 38.4196 40.2452 38.3612 40.3518 38.2572C40.4583 38.1533 40.5182 38.0122 40.5182 37.8652C40.5182 37.7182 40.4583 37.5771 40.3518 37.4732C40.2452 37.3692 40.1007 37.3108 39.95 37.3108" fill="#F6F7F9"/>
<path d="M23 44.5647V35.6941C23 34.5178 23.4789 33.3897 24.3313 32.5579C25.1838 31.7261 26.3399 31.2588 27.5455 31.2588H43.4545C44.6601 31.2588 45.8162 31.7261 46.6687 32.5579C47.5211 33.3897 48 34.5178 48 35.6941V44.5647C48 45.741 47.5211 46.8692 46.6687 47.7009C45.8162 48.5327 44.6601 49 43.4545 49H27.5455C26.3399 49 25.1838 48.5327 24.3313 47.7009C23.4789 46.8692 23 45.741 23 44.5647Z" fill="#F6F7F9"/>
<path d="M23 44.5647H22H23ZM23 35.6941H22H23ZM27.5455 31.2588V30.2588V31.2588ZM38.1523 23.588H39.1523H38.1523ZM35.5 26.176V27.176V26.176ZM35.5 21V20V21ZM36.5 26.1738C36.5 25.6215 36.0523 25.1738 35.5 25.1738C34.9477 25.1738 34.5 25.6215 34.5 26.1738H36.5ZM34.5 31.1635C34.5 31.7158 34.9477 32.1635 35.5 32.1635C36.0523 32.1635 36.5 31.7158 36.5 31.1635H34.5ZM40.1962 44.0113C40.5801 43.6142 40.5694 42.9811 40.1724 42.5972C39.7753 42.2134 39.1422 42.224 38.7583 42.6211L40.1962 44.0113ZM32.2417 42.6211C31.8578 42.224 31.2247 42.2134 30.8276 42.5972C30.4306 42.9811 30.4199 43.6142 30.8038 44.0113L32.2417 42.6211ZM31.05 38.4196V39.4196V38.4196ZM30.4818 37.8652H29.4818H30.4818ZM31.05 37.3108V36.3108V37.3108ZM31.6182 37.8652H32.6182H31.6182ZM39.95 38.4196V39.4196V38.4196ZM39.3818 37.8652H38.3818H39.3818ZM39.95 37.3108V36.3108V37.3108ZM40.5182 37.8652H41.5182H40.5182ZM24 44.5647V35.6941H22V44.5647H24ZM24 35.6941C24 34.7911 24.3674 33.9199 25.0297 33.2736L23.633 31.8422C22.5904 32.8595 22 34.2446 22 35.6941H24ZM25.0297 33.2736C25.6928 32.6266 26.5973 32.2588 27.5455 32.2588V30.2588C26.0825 30.2588 24.6747 30.8257 23.633 31.8422L25.0297 33.2736ZM27.5455 32.2588H43.4545V30.2588H27.5455V32.2588ZM43.4545 32.2588C44.4027 32.2588 45.3072 32.6266 45.9703 33.2736L47.367 31.8422C46.3253 30.8257 44.9175 30.2588 43.4545 30.2588V32.2588ZM45.9703 33.2736C46.6326 33.9199 47 34.7911 47 35.6941H49C49 34.2446 48.4096 32.8595 47.367 31.8422L45.9703 33.2736ZM47 35.6941V44.5647H49V35.6941H47ZM47 44.5647C47 45.4678 46.6326 46.339 45.9703 46.9852L47.367 48.4167C48.4096 47.3993 49 46.0143 49 44.5647H47ZM45.9703 46.9852C45.3072 47.6323 44.4027 48 43.4545 48V50C44.9175 50 46.3253 49.4332 47.367 48.4167L45.9703 46.9852ZM43.4545 48H27.5455V50H43.4545V48ZM27.5455 48C26.5973 48 25.6928 47.6323 25.0297 46.9852L23.633 48.4167C24.6747 49.4332 26.0825 50 27.5455 50V48ZM25.0297 46.9852C24.3674 46.339 24 45.4678 24 44.5647H22C22 46.0143 22.5904 47.3993 23.633 48.4167L25.0297 46.9852ZM37.1523 23.588C37.1523 24.0011 36.9843 24.4025 36.6771 24.7023L38.0738 26.1337C38.7614 25.4628 39.1523 24.5476 39.1523 23.588H37.1523ZM36.6771 24.7023C36.369 25.0029 35.946 25.176 35.5 25.176V27.176C36.4608 27.176 37.3871 26.8038 38.0738 26.1337L36.6771 24.7023ZM35.5 25.176C35.054 25.176 34.631 25.0029 34.3229 24.7023L32.9262 26.1337C33.6129 26.8038 34.5392 27.176 35.5 27.176V25.176ZM34.3229 24.7023C34.0157 24.4025 33.8477 24.0011 33.8477 23.588H31.8477C31.8477 24.5476 32.2386 25.4628 32.9262 26.1337L34.3229 24.7023ZM33.8477 23.588C33.8477 23.1749 34.0157 22.7735 34.3229 22.4737L32.9262 21.0423C32.2386 21.7132 31.8477 22.6284 31.8477 23.588H33.8477ZM34.3229 22.4737C34.631 22.1731 35.054 22 35.5 22V20C34.5392 20 33.6129 20.3722 32.9262 21.0423L34.3229 22.4737ZM35.5 22C35.946 22 36.369 22.1731 36.6771 22.4737L38.0738 21.0423C37.3871 20.3722 36.4608 20 35.5 20V22ZM36.6771 22.4737C36.9843 22.7735 37.1523 23.1749 37.1523 23.588H39.1523C39.1523 22.6284 38.7614 21.7132 38.0738 21.0423L36.6771 22.4737ZM34.5 26.1738V31.1635H36.5V26.1738H34.5ZM39.4773 43.3162C38.7583 42.6211 38.7587 42.6207 38.7591 42.6203C38.7592 42.6202 38.7595 42.6199 38.7598 42.6196C38.7602 42.6191 38.7607 42.6187 38.7611 42.6183C38.7619 42.6174 38.7627 42.6166 38.7634 42.6159C38.7648 42.6145 38.766 42.6133 38.7668 42.6125C38.7685 42.6108 38.769 42.6103 38.7685 42.6108C38.7673 42.6119 38.7616 42.6174 38.7514 42.6265C38.7309 42.6449 38.6922 42.6781 38.635 42.7214C38.5206 42.8082 38.3327 42.9353 38.068 43.0663C37.5427 43.3261 36.6993 43.6091 35.5 43.6091V45.6091C37.028 45.6091 38.1732 45.2455 38.9548 44.8589C39.3435 44.6667 39.6385 44.4706 39.8437 44.3149C39.9463 44.2371 40.0266 44.1693 40.0851 44.1169C40.1143 44.0907 40.1382 44.0684 40.1567 44.0506C40.1659 44.0417 40.1738 44.0339 40.1804 44.0273C40.1837 44.024 40.1867 44.021 40.1893 44.0183C40.1906 44.017 40.1918 44.0157 40.193 44.0146C40.1936 44.014 40.1941 44.0134 40.1947 44.0128C40.1949 44.0126 40.1953 44.0122 40.1954 44.012C40.1958 44.0116 40.1962 44.0113 39.4773 43.3162ZM35.5 43.6091C34.3007 43.6091 33.4573 43.3261 32.932 43.0663C32.6673 42.9353 32.4794 42.8082 32.365 42.7214C32.3078 42.6781 32.2691 42.6449 32.2486 42.6265C32.2384 42.6174 32.2327 42.6119 32.2315 42.6108C32.231 42.6103 32.2315 42.6108 32.2332 42.6125C32.234 42.6133 32.2352 42.6145 32.2366 42.6159C32.2373 42.6166 32.2381 42.6174 32.2389 42.6183C32.2393 42.6187 32.2398 42.6191 32.2402 42.6196C32.2405 42.6199 32.2408 42.6202 32.2409 42.6203C32.2413 42.6207 32.2417 42.6211 31.5227 43.3162C30.8038 44.0113 30.8042 44.0116 30.8046 44.012C30.8047 44.0122 30.8051 44.0126 30.8053 44.0128C30.8059 44.0134 30.8064 44.014 30.807 44.0146C30.8082 44.0157 30.8094 44.017 30.8107 44.0183C30.8133 44.021 30.8163 44.024 30.8196 44.0273C30.8262 44.0339 30.8341 44.0417 30.8433 44.0506C30.8618 44.0684 30.8857 44.0907 30.9149 44.1169C30.9734 44.1693 31.0537 44.2371 31.1563 44.3149C31.3615 44.4706 31.6565 44.6667 32.0452 44.8589C32.8268 45.2455 33.972 45.6091 35.5 45.6091V43.6091ZM31.05 37.4196C31.1567 37.4196 31.2639 37.4607 31.3466 37.5415L29.9499 38.973C30.2457 39.2617 30.6419 39.4196 31.05 39.4196V37.4196ZM31.3466 37.5415C31.4302 37.6231 31.4818 37.739 31.4818 37.8652H29.4818C29.4818 38.2855 29.6532 38.6834 29.9499 38.973L31.3466 37.5415ZM31.4818 37.8652C31.4818 37.9914 31.4302 38.1073 31.3466 38.1889L29.9499 36.7574C29.6532 37.047 29.4818 37.4449 29.4818 37.8652H31.4818ZM31.3466 38.1889C31.2639 38.2697 31.1567 38.3108 31.05 38.3108V36.3108C30.6419 36.3108 30.2457 36.4687 29.9499 36.7574L31.3466 38.1889ZM31.05 39.4196C31.4581 39.4196 31.8543 39.2617 32.1501 38.973L30.7534 37.5415C30.8361 37.4607 30.9433 37.4196 31.05 37.4196V39.4196ZM32.1501 38.973C32.4468 38.6834 32.6182 38.2855 32.6182 37.8652H30.6182C30.6182 37.739 30.6698 37.6231 30.7534 37.5415L32.1501 38.973ZM32.6182 37.8652C32.6182 37.4449 32.4468 37.047 32.1501 36.7574L30.7534 38.1889C30.6698 38.1073 30.6182 37.9914 30.6182 37.8652H32.6182ZM32.1501 36.7574C31.8543 36.4687 31.4581 36.3108 31.05 36.3108V38.3108C30.9433 38.3108 30.8361 38.2697 30.7534 38.1889L32.1501 36.7574ZM39.95 37.4196C40.0567 37.4196 40.1639 37.4607 40.2466 37.5415L38.8499 38.973C39.1457 39.2617 39.5419 39.4196 39.95 39.4196V37.4196ZM40.2466 37.5415C40.3302 37.6231 40.3818 37.739 40.3818 37.8652H38.3818C38.3818 38.2855 38.5532 38.6834 38.8499 38.973L40.2466 37.5415ZM40.3818 37.8652C40.3818 37.9914 40.3302 38.1073 40.2466 38.1889L38.8499 36.7574C38.5532 37.047 38.3818 37.4449 38.3818 37.8652H40.3818ZM40.2466 38.1889C40.1639 38.2697 40.0567 38.3108 39.95 38.3108V36.3108C39.5419 36.3108 39.1457 36.4687 38.8499 36.7574L40.2466 38.1889ZM39.95 39.4196C40.3581 39.4196 40.7543 39.2617 41.0501 38.973L39.6534 37.5415C39.7361 37.4607 39.8433 37.4196 39.95 37.4196V39.4196ZM41.0501 38.973C41.3468 38.6834 41.5182 38.2855 41.5182 37.8652H39.5182C39.5182 37.739 39.5698 37.6231 39.6534 37.5415L41.0501 38.973ZM41.5182 37.8652C41.5182 37.4449 41.3468 37.047 41.0501 36.7574L39.6534 38.1889C39.5698 38.1073 39.5182 37.9914 39.5182 37.8652H41.5182ZM41.0501 36.7574C40.7543 36.4687 40.3581 36.3108 39.95 36.3108V38.3108C39.8433 38.3108 39.7361 38.2697 39.6534 38.1889L41.0501 36.7574Z" fill="#434E61"/>
<defs>
<linearGradient id="paint0_linear_10504_208" x1="0" y1="0" x2="70" y2="70" gradientUnits="userSpaceOnUse">
<stop stop-color="#E5E5E5"/>
<stop offset="1" stop-color="#E5E5E5" stop-opacity="0"/>
</linearGradient>
</defs>
</svg>
