<svg width="70" height="70" viewBox="0 0 70 70" fill="none" xmlns="http://www.w3.org/2000/svg">
<circle cx="35" cy="35" r="35" fill="url(#paint0_linear_10504_195)"/>
<path d="M29.5611 22L25.0748 32.62C25.0127 32.7715 24.9887 32.936 25.0049 33.0989C25.021 33.2619 25.0769 33.4184 25.1674 33.5547C25.258 33.691 25.3806 33.8029 25.5244 33.8805C25.6681 33.9582 25.8287 33.9992 25.992 34H31.555L27.5672 48L44.6948 31.72C44.837 31.5825 44.9353 31.4057 44.9774 31.212C45.0193 31.0183 45.0027 30.8165 44.9301 30.6322C44.8575 30.4479 44.7319 30.2895 44.5692 30.1769C44.4067 30.0643 44.2145 30.0027 44.0169 30H36.5397L40.5275 22H29.5611Z" fill="#F6F7F9"/>
<path d="M29.5611 22L25.0748 32.62C25.0127 32.7715 24.9887 32.936 25.0049 33.0989C25.021 33.2619 25.0769 33.4184 25.1674 33.5547C25.258 33.691 25.3806 33.8029 25.5244 33.8805C25.6681 33.9582 25.8287 33.9992 25.992 34H31.555L27.5672 48L44.6948 31.72C44.837 31.5825 44.9353 31.4057 44.9774 31.212C45.0193 31.0183 45.0027 30.8165 44.9301 30.6322C44.8575 30.4479 44.7319 30.2895 44.5692 30.1769C44.4067 30.0643 44.2145 30.0027 44.0169 30H36.5397L40.5275 22H29.5611Z" fill="#F6F7F9"/>
<path d="M29.5611 22L25.0748 32.62C25.0127 32.7715 24.9887 32.936 25.0049 33.0989C25.021 33.2619 25.0769 33.4184 25.1674 33.5547C25.258 33.691 25.3806 33.8029 25.5244 33.8805C25.6681 33.9582 25.8287 33.9992 25.992 34H31.555L27.5672 48L44.6948 31.72C44.837 31.5825 44.9353 31.4057 44.9774 31.212C45.0193 31.0183 45.0027 30.8165 44.9301 30.6322C44.8575 30.4479 44.7319 30.2895 44.5692 30.1769C44.4067 30.0643 44.2145 30.0027 44.0169 30H36.5397L40.5275 22H29.5611Z" stroke="#434E61" stroke-width="2" stroke-linecap="round"/>
<path d="M29.5611 22L25.0748 32.62C25.0127 32.7715 24.9887 32.936 25.0049 33.0989C25.021 33.2619 25.0769 33.4184 25.1674 33.5547C25.258 33.691 25.3806 33.8029 25.5244 33.8805C25.6681 33.9582 25.8287 33.9992 25.992 34H31.555L27.5672 48L44.6948 31.72C44.837 31.5825 44.9353 31.4057 44.9774 31.212C45.0193 31.0183 45.0027 30.8165 44.9301 30.6322C44.8575 30.4479 44.7319 30.2895 44.5692 30.1769C44.4067 30.0643 44.2145 30.0027 44.0169 30H36.5397L40.5275 22H29.5611Z" stroke="#434E61" stroke-width="2" stroke-linecap="round"/>
<defs>
<linearGradient id="paint0_linear_10504_195" x1="0" y1="0" x2="70" y2="70" gradientUnits="userSpaceOnUse">
<stop stop-color="#E5E5E5"/>
<stop offset="1" stop-color="#E5E5E5" stop-opacity="0"/>
</linearGradient>
</defs>
</svg>
