<svg width="198" height="15" viewBox="0 0 198 15" fill="none" xmlns="http://www.w3.org/2000/svg">
<path d="M192.718 7.80417C186.965 7.63705 181.722 7.00282 176.443 6.52288C166.337 5.61011 156.187 4.92447 145.988 4.44881C132.345 3.81459 118.681 3.45462 105.002 3.5789C72.4454 3.8703 40.5051 6.60429 9.38257 12.4537C7.82609 12.7451 6.27678 13.0365 4.72747 13.3322C3.64438 13.5379 2.69041 13.8464 2.15246 14.4935C1.91576 14.772 1.62166 15.0677 0.976115 14.9863C0.280359 14.9006 0.115388 14.5449 0.0364874 14.1892C-0.200213 13.0879 0.739433 12.3251 2.13812 11.7295C3.96 10.9496 6.0616 10.4953 8.13452 10.0411C25.6862 6.1672 43.7687 3.5789 62.2888 2.01906C74.7406 0.973457 87.2571 0.412088 99.8237 0.124975C113.775 -0.192135 127.683 0.13783 141.598 0.62635C156.689 1.15344 171.716 1.99335 186.585 3.68603C189.964 4.0717 193.407 4.43166 196.355 5.6144C197.093 5.91008 198.148 6.16291 197.983 6.80142C197.811 7.46135 196.663 7.47421 195.795 7.56848C194.647 7.69275 193.478 7.74418 192.704 7.7956L192.718 7.80417Z" fill="#64748B"/>
</svg>
