<svg width="268" height="24" viewBox="0 0 268 24" fill="none" xmlns="http://www.w3.org/2000/svg">
<path d="M122.233 11.3891C127.871 11.3891 133.509 11.282 139.136 11.4105C148.308 11.6175 157.491 11.8674 166.513 13.2451C167.835 13.445 169.146 13.7519 170.408 14.116C172.02 14.58 173.232 15.3866 173.182 16.7287C173.132 18.0707 171.83 18.7988 170.218 19.2557C167.494 20.0338 164.63 20.4121 161.766 20.7762C149.31 22.3538 136.763 23.2604 124.116 23.6316C120.211 23.7458 116.315 24.0313 112.41 23.9742C111.649 23.96 110.438 24.1955 110.317 23.4745C110.177 22.6393 111.409 22.6536 112.28 22.5465C123.665 21.1759 135.121 20.1908 146.556 19.0844C152.124 18.5419 157.691 17.9708 163.198 16.7287C161.466 16.5502 159.734 16.2932 157.991 16.2147C140.288 15.3795 122.554 15.1511 104.83 15.4723C93.0142 15.6865 81.2084 15.9506 69.4026 15.3938C68.7717 15.3652 68.1309 15.3295 67.51 15.2225C66.008 14.9655 64.6963 14.4872 64.6562 13.2165C64.6161 11.9602 65.8678 11.382 67.3698 11.1107C68.952 10.8252 70.5641 10.6538 72.1362 10.2469C66.5988 10.7038 61.0614 11.1036 55.544 11.6318C40.1533 13.1166 24.7627 14.6371 9.38206 16.2076C6.99886 16.4503 4.47549 16.4646 2.38268 17.5782C1.62166 17.9779 0.74047 17.878 0.279852 17.2569C-0.340981 16.4146 0.109625 15.6936 1.25116 15.3224C3.50418 14.58 5.96748 14.3444 8.38071 14.0803C33.3542 11.3534 58.3678 8.84066 83.4614 6.7705C103.138 5.14292 122.854 3.70809 142.621 2.68729C157.851 1.90205 173.082 1.23817 188.332 0.717057C211.153 -0.0681757 233.963 -0.118143 256.794 0.138842C259.778 0.174534 262.762 0.488636 265.736 0.738483C266.988 0.84556 268.039 1.25958 267.999 2.3375C267.959 3.30119 266.968 3.6367 265.846 3.82944C260.519 4.75744 255.052 4.92163 249.624 5.20003C234.674 5.97099 219.704 6.59203 204.744 7.27019C190.605 7.91265 176.456 8.54084 162.317 9.21186C148.949 9.84718 135.581 10.5468 122.223 11.2106C122.223 11.2677 122.223 11.3248 122.223 11.382L122.233 11.3891ZM247.912 2.60876C191.616 2.47313 135.561 5.22144 79.6563 9.73296C135.691 6.78477 191.837 5.08581 247.912 2.60876Z" fill="#EC4899"/>
</svg>
