<svg width="66" height="68" viewBox="0 0 66 68" fill="none" xmlns="http://www.w3.org/2000/svg">
<path d="M14.3652 47.273C15.2587 46.582 16.1302 45.8564 17.0498 45.2026C25.0738 39.5199 33.6847 34.8624 42.5581 30.6704C48.622 27.803 54.7917 25.1703 61.1108 22.9066C61.6676 22.7062 62.4894 22.0392 62.8445 22.7656C63.215 23.5274 62.1575 23.7008 61.6584 23.9923C57.2138 26.5673 52.7058 29.035 48.0852 31.2929C37.9835 36.2312 28.1195 41.6044 18.4825 47.3868C17.5149 47.9687 16.4799 48.4404 15.4565 48.9207C14.9496 49.1585 14.4145 49.1776 14.0788 48.6095C13.7825 48.1008 14.06 47.6975 14.3652 47.273Z" fill="#EC4899"/>
<path d="M41.2223 56.3048C40.7803 56.3995 40.2387 56.5395 39.6874 56.6364C35.3059 57.3968 30.866 57.6346 26.4562 58.1284C24.7236 58.3242 22.9957 58.5295 21.2649 58.6908C20.7203 58.7387 20.0357 58.8377 19.8685 58.0842C19.7216 57.3997 20.2801 57.0928 20.7822 56.8215C21.5995 56.3847 22.4929 56.1664 23.398 56.0286C29.0118 55.1894 34.6543 54.9044 40.3221 55.3866C40.6204 55.412 40.9408 55.4479 41.2104 55.5596C41.506 55.6847 41.5266 55.9456 41.2223 56.3048Z" fill="#EC4899"/>
<path d="M13.9713 26.332C14.2749 26.6547 14.1815 27.0039 14.0631 27.3225C13.7004 28.2966 13.3827 29.2984 12.9135 30.2227C11.0601 33.8482 9.89869 37.7094 8.91478 41.6374C8.7557 42.2668 8.79854 43.2028 7.7721 43.0463C6.84063 42.9069 6.71164 42.0622 6.75447 41.316C6.95172 37.7998 7.90214 34.4694 9.45803 31.322C10.3296 29.5549 11.4672 27.9686 12.9533 26.6608C13.2483 26.4023 13.5538 26.1457 13.978 26.331L13.9713 26.332Z" fill="#EC4899"/>
</svg>
